<svg width="30" height="30" viewBox="0 0 30 30" fill="none" xmlns="http://www.w3.org/2000/svg">
<path d="M11.0625 14.9959C11.0623 15.7747 11.293 16.5361 11.7255 17.1838C12.158 17.8314 12.7729 18.3363 13.4924 18.6345C14.2118 18.9327 15.0036 19.0109 15.7674 18.8591C16.5313 18.7073 17.233 18.3323 17.7838 17.7817C18.3346 17.2311 18.7097 16.5295 18.8618 15.7657C19.0138 15.0018 18.9359 14.2101 18.6379 13.4905C18.3399 12.771 17.8352 12.1559 17.1877 11.7232C16.5401 11.2905 15.7788 11.0596 15 11.0596C13.9568 11.0624 12.957 11.4779 12.2193 12.2155C11.4815 12.9531 11.0656 13.9527 11.0625 14.9959Z" fill="black"/>
<path d="M27.9346 12.7611C27.9346 12.7611 27.9346 12.7611 27.9346 12.7641C27.8385 12.1917 27.7015 11.6269 27.5244 11.0742H27.518C27.6977 11.6296 27.8362 12.1976 27.9322 12.7734C27.8359 12.1977 27.6975 11.6297 27.518 11.0742H18.4125C19.5287 12.0703 20.25 13.4279 20.25 15.0029C20.2526 15.9259 20.0032 16.8321 19.5287 17.6238L13.5352 28.0342C13.5354 28.0394 13.5354 28.0447 13.5352 28.05V28.0664V28.0512C14.0217 28.1031 14.5107 28.1277 15 28.125C15.4008 28.125 15.7975 28.1021 16.1895 28.0664C16.7767 28.0133 17.3597 27.9205 17.9344 27.7887C23.7703 26.4563 28.125 21.2344 28.125 14.9965C28.1251 14.2473 28.0614 13.4995 27.9346 12.7611Z" fill="black"/>
<path d="M14.9997 20.244C13.0309 20.244 11.3903 19.1946 10.471 17.6196L4.45279 7.20986L4.44459 7.1958C3.14598 8.95395 2.30701 11.0086 2.00383 13.1732C1.70065 15.3378 1.94286 17.5438 2.70848 19.5911C3.47409 21.6384 4.73886 23.462 6.388 24.8965C8.03714 26.331 10.0184 27.331 12.152 27.8056V27.8026L16.7042 19.9159C16.1599 20.1253 15.5828 20.2363 14.9997 20.244Z" fill="black"/>
<path d="M5.34863 6.12706L9.88086 13.9347C10.1161 12.7497 10.7547 11.6828 11.688 10.9156C12.6212 10.1483 13.7915 9.72813 14.9996 9.72647H27.0213C26.608 8.81841 26.1018 7.9556 25.5107 7.15186L25.5178 7.15655C26.1066 7.95882 26.6105 8.82009 27.0213 9.72647H27.0312C26.6207 8.81737 26.1168 7.95336 25.5277 7.14835C25.5205 7.14385 25.5136 7.13875 25.5072 7.13311C24.3525 5.58931 22.8717 4.31895 21.1702 3.41241C19.4687 2.50586 17.5884 1.98541 15.6629 1.88807C13.7375 1.79073 11.8142 2.1189 10.03 2.84923C8.24578 3.57956 6.64442 4.69411 5.33984 6.11358L5.34805 6.12765L5.34863 6.12706Z" fill="black"/>
</svg>
