<svg width="30" height="30" viewBox="0 0 30 30" fill="none" xmlns="http://www.w3.org/2000/svg">
<path d="M13.502 22.2124C13.6174 22.2126 13.7317 22.2355 13.8382 22.2798C13.9448 22.3241 14.0415 22.3889 14.123 22.4707C14.2045 22.5524 14.2691 22.6493 14.3131 22.756C14.3571 22.8627 14.3797 22.977 14.3795 23.0924C14.3794 23.2078 14.3565 23.322 14.3122 23.4286C14.2678 23.5351 14.203 23.6319 14.1213 23.7134C14.0395 23.7949 13.9426 23.8595 13.8359 23.9035C13.7292 23.9475 13.6149 23.9701 13.4995 23.9699C13.2665 23.9696 13.0431 23.8767 12.8785 23.7116C12.714 23.5466 12.6217 23.323 12.622 23.0899C12.6224 22.8568 12.7153 22.6335 12.8803 22.4689C13.0453 22.3043 13.269 22.2121 13.502 22.2124ZM27.282 16.7786C27.1666 16.7786 27.0524 16.7558 26.9458 16.7115C26.8392 16.6673 26.7424 16.6025 26.6608 16.5208C26.5793 16.4392 26.5146 16.3422 26.4705 16.2356C26.4265 16.129 26.4038 16.0147 26.4039 15.8993C26.404 15.7839 26.4268 15.6696 26.471 15.563C26.5153 15.4565 26.5801 15.3596 26.6617 15.2781C26.7434 15.1965 26.8403 15.1319 26.9469 15.0878C27.0536 15.0437 27.1679 15.0211 27.2833 15.0211C27.5163 15.0213 27.7398 15.1141 27.9045 15.279C28.0691 15.4439 28.1616 15.6675 28.1614 15.9005C28.1612 16.1336 28.0685 16.357 27.9036 16.5217C27.7387 16.6864 27.5151 16.7788 27.282 16.7786ZM27.282 13.1836C26.5615 13.1843 25.8707 13.4708 25.3612 13.9803C24.8517 14.4898 24.5652 15.1806 24.5645 15.9011C24.5645 16.1924 24.6133 16.4824 24.7083 16.7649L15.732 21.5436C15.4831 21.1823 15.1501 20.8868 14.7616 20.6828C14.3731 20.4787 13.9408 20.3722 13.502 20.3724C12.4658 20.3724 11.522 20.9661 11.0645 21.8924L3.00077 17.6399C2.14827 17.1924 1.51077 15.7899 1.57827 14.5124C1.61327 13.8461 1.84327 13.3286 2.19452 13.1286C2.41702 13.0036 2.68452 13.0136 2.96952 13.1624L3.02202 13.1911C5.15952 14.3161 12.152 17.9999 12.447 18.1361C12.9008 18.3474 13.1533 18.4324 13.9283 18.0649L28.3833 10.5474C28.5958 10.4674 28.8433 10.2636 28.8433 9.9549C28.8433 9.5274 28.4008 9.35865 28.3995 9.35865C27.577 8.9649 26.3133 8.37365 25.0808 7.79615C22.4458 6.5624 19.4595 5.1649 18.1483 4.4774C17.0158 3.8849 16.1045 4.3849 15.942 4.4849L15.627 4.64115C9.72452 7.5599 1.82452 11.4724 1.37452 11.7461C0.570769 12.2361 0.0720193 13.2124 0.00701926 14.4236C-0.0929807 16.3449 0.885769 18.3486 2.28702 19.0824L10.8145 23.4799C10.9085 24.1259 11.2317 24.7165 11.7251 25.1438C12.2185 25.5711 12.8493 25.8067 13.502 25.8074C14.2149 25.8062 14.8989 25.5253 15.4068 25.025C15.9148 24.5248 16.2062 23.8452 16.2183 23.1324L25.6108 18.0411C26.0858 18.4136 26.677 18.6174 27.282 18.6174C28.0025 18.6167 28.6934 18.3302 29.2028 17.8207C29.7123 17.3112 29.9989 16.6204 29.9995 15.8999C29.9989 15.1794 29.7123 14.4886 29.2028 13.9791C28.6934 13.4696 28.0025 13.1831 27.282 13.1824" fill="black"/>
</svg>
