<svg width="248" height="52" viewBox="0 0 248 52" fill="none" xmlns="http://www.w3.org/2000/svg">
<g clip-path="url(#clip0_28_18)">
<mask id="mask0_28_18" style="mask-type:luminance" maskUnits="userSpaceOnUse" x="0" y="0" width="248" height="52">
<path d="M0 0H248V52H0V0Z" fill="white"/>
</mask>
<g mask="url(#mask0_28_18)">
<path d="M32.9318 10.8951C30.8239 10.0077 28.5581 9.5523 26.2697 9.55611C23.9059 9.55611 21.6556 10.0319 19.6089 10.8951L25.7267 0.313111C25.7815 0.219205 25.86 0.141265 25.9545 0.0870873C26.049 0.0329097 26.1561 0.00439453 26.2651 0.00439453C26.3742 0.00439453 26.4813 0.0329097 26.5758 0.0870873C26.6703 0.141265 26.7488 0.219205 26.8036 0.313111L32.9252 10.8951H32.9318Z" fill="black"/>
<path d="M17.9813 11.6883C15.959 12.807 14.1843 14.3209 12.7636 16.1393C11.343 17.9576 10.3056 20.0429 9.71377 22.2703L5.16493 10.7029C5.12477 10.6016 5.11209 10.4916 5.12817 10.3839C5.14425 10.2762 5.18851 10.1746 5.25651 10.0894C5.32451 10.0041 5.41385 9.93819 5.51555 9.89824C5.61724 9.85828 5.72771 9.8457 5.83583 9.86176L17.9813 11.6883Z" fill="black"/>
<path d="M12.7929 37.1982L0.441194 33.3918C0.336929 33.3594 0.242988 33.3004 0.168723 33.2207C0.0944578 33.141 0.0424591 33.0432 0.0179033 32.9373C-0.00665255 32.8313 -0.00290901 32.7207 0.0287612 32.6166C0.0604315 32.5126 0.118924 32.4185 0.198415 32.344L9.37442 23.8433C9.22162 24.7711 9.14479 25.7097 9.14469 26.65C9.14469 30.6319 10.5087 34.2953 12.7942 37.1982H12.7929Z" fill="black"/>
<path d="M26.0139 43.7422L15.1841 51.1093C15.094 51.1714 14.9891 51.2086 14.8799 51.2171C14.7707 51.2256 14.6611 51.2051 14.5625 51.1576C14.4639 51.1102 14.3797 51.0375 14.3185 50.947C14.2573 50.8565 14.2213 50.7514 14.2143 50.6426L13.2471 37.7427C14.8226 39.5911 16.7769 41.0823 18.979 42.1162C21.181 43.1501 23.5796 43.7028 26.0139 43.737V43.7422Z" fill="black"/>
<path d="M39.2531 37.7961L38.2911 50.6297C38.2781 50.7932 38.2009 50.9449 38.0763 51.052C37.9517 51.159 37.7897 51.2129 37.6255 51.2017C37.5162 51.1944 37.4109 51.1585 37.32 51.0977L26.5125 43.7423C28.9383 43.7105 31.3295 43.1637 33.5263 42.1383C35.7232 41.1129 37.6764 39.6326 39.2531 37.7961Z" fill="black"/>
<path d="M52.0891 33.3527L39.7909 37.1409C42.1331 34.142 43.4016 30.4493 43.3947 26.6499C43.3947 25.6814 43.3112 24.7298 43.1572 23.8042L52.3279 32.2997C52.6804 32.626 52.5446 33.211 52.0891 33.3488V33.3527Z" fill="black"/>
<path d="M47.3732 10.7249L42.8308 22.2897C42.2409 20.065 41.2071 17.9813 39.7912 16.163C38.3752 14.3448 36.6061 12.8291 34.5894 11.7064L46.7023 9.88251C46.8104 9.86646 46.9208 9.87904 47.0225 9.91899C47.1242 9.95894 47.2136 10.0249 47.2816 10.1101C47.3496 10.1954 47.3938 10.2969 47.4099 10.4046C47.426 10.5123 47.4133 10.6223 47.3732 10.7236V10.7249Z" fill="black"/>
<path d="M26.2697 47.4329C25.6683 47.4335 25.0729 47.5522 24.5175 47.7821C23.9622 48.012 23.4577 48.3486 23.033 48.7727C22.6083 49.1968 22.2716 49.7001 22.0422 50.2538C21.8128 50.8075 21.6952 51.4008 21.696 51.9998H30.8486C30.8494 51.4008 30.7318 50.8075 30.5024 50.2538C30.273 49.7001 29.9363 49.1968 29.5116 48.7727C29.0869 48.3486 28.5824 48.012 28.0271 47.7821C27.4717 47.5522 26.8763 47.4335 26.2749 47.4329H26.2697Z" fill="black"/>
<path d="M42.998 39.9488C42.2408 40.8967 41.8918 42.1048 42.0273 43.3086C42.1628 44.5123 42.7719 45.6134 43.7211 46.3708L49.4251 39.2273C48.9555 38.8533 48.4165 38.5754 47.8388 38.4093C47.2612 38.2432 46.6564 38.1923 46.0589 38.2594C45.4615 38.3266 44.8833 38.5105 44.3574 38.8006C43.8314 39.0907 43.3681 39.4813 42.994 39.9501H42.998V39.9488Z" fill="black"/>
<path d="M46.7479 22.2844C46.8802 22.8687 47.1269 23.4214 47.474 23.9106C47.8212 24.3998 48.2618 24.8159 48.7708 25.1351C49.2797 25.4543 49.8469 25.6703 50.4399 25.7707C51.0328 25.8712 51.6399 25.854 52.2261 25.7203L50.1886 16.8101C49.602 16.9441 49.0476 17.1919 48.5571 17.5394C48.0667 17.8869 47.6498 18.3272 47.3302 18.8352C47.0107 19.3432 46.7948 19.909 46.6949 20.5001C46.595 21.0913 46.613 21.6963 46.7479 22.2805V22.2844Z" fill="black"/>
<path d="M35.5214 8.31086C36.0631 8.57137 36.6511 8.72277 37.2517 8.75637C37.8523 8.78997 38.4536 8.70511 39.0212 8.50665C39.5888 8.3082 40.1114 8.00007 40.5591 7.59993C41.0068 7.1998 41.3707 6.71554 41.6301 6.17496L33.386 2.20996C32.8581 3.30165 32.7869 4.5574 33.188 5.70134C33.5892 6.84528 34.4298 7.78385 35.5253 8.31086H35.5201H35.5214Z" fill="black"/>
<path d="M16.8118 8.31086C17.9064 7.78289 18.7459 6.84401 19.1463 5.70023C19.5466 4.55646 19.475 3.30122 18.9472 2.20996L10.7018 6.17496C10.9618 6.71513 11.3262 7.1989 11.7742 7.59855C12.2222 7.9982 12.7449 8.30588 13.3125 8.50393C13.8801 8.70199 14.4814 8.78654 15.0819 8.75274C15.6823 8.71894 16.2702 8.56745 16.8118 8.30696V8.31086Z" fill="black"/>
<path d="M5.9115 22.2845C6.18201 21.1042 5.97104 19.8652 5.32492 18.8398C4.6788 17.8143 3.65039 17.0862 2.46561 16.8154L0.432007 25.7243C1.01861 25.8575 1.62582 25.8741 2.21887 25.7732C2.81193 25.6724 3.37919 25.456 3.88817 25.1365C4.39714 24.817 4.83784 24.4006 5.18504 23.9112C5.53223 23.4218 5.7791 22.8691 5.9115 22.2845Z" fill="black"/>
<path d="M3.75 39.2275L9.45792 46.371C10.4074 45.6139 11.0167 44.5127 11.1522 43.3088C11.2878 42.105 10.9385 40.8967 10.181 39.949C9.80674 39.4805 9.34334 39.0901 8.81736 38.8002C8.29138 38.5103 7.71315 38.3266 7.11579 38.2596C6.51842 38.1926 5.91365 38.2435 5.3361 38.4096C4.75855 38.5757 4.21956 38.8536 3.75 39.2275Z" fill="black"/>
<path d="M78.4476 13.2781V26.3587H93.821V14.036H100.826V43.3679H93.8223V32.5948H78.4476V43.3679H71.4423V15.167L78.4476 13.2781ZM113.51 37.1279H134.941L133.048 43.364H106.508V14.0308H134.945L133.052 20.2682H113.514V25.5969H131.725V31.833H113.514V37.1266L113.51 37.1279ZM146.184 14.0334V37.1279H166.857L164.964 43.364H139.18V14.0308H146.184V14.0334ZM176.892 14.0334V43.3653H169.888V14.0321H176.892V14.0334ZM206.273 14.0334H213.277V31.7251C213.277 40.2687 206.272 44.0075 197.224 44.0075C188.177 44.0075 181.661 39.9996 181.661 31.7251V15.167L188.667 13.2781V31.7238C188.667 36.0307 191.542 37.6596 197.565 37.6596C203.586 37.6596 206.273 35.9202 206.273 31.7238V14.0308V14.0334ZM216.838 22.9553C216.838 18.4586 220.398 14.0334 227.364 14.0334H247.355L245.464 20.2695H227.438C225.281 20.2695 224.218 21.6293 224.218 22.9514C224.218 24.2722 225.317 25.5982 227.438 25.5982H237.584C244.435 25.5982 247.996 30.0195 247.996 34.5214C247.996 39.022 244.625 43.364 237.584 43.364H216.838L218.731 37.1279H237.51C239.632 37.1279 240.73 35.8812 240.73 34.5214C240.73 33.1603 239.671 31.7992 237.51 31.7992H227.364C220.283 31.7992 216.838 27.3779 216.838 22.9553Z" fill="black"/>
</g>
</g>
<defs>
<clipPath id="clip0_28_18">
<rect width="248" height="52" fill="white"/>
</clipPath>
</defs>
</svg>
