<svg width="30" height="30" viewBox="0 0 30 30" fill="none" xmlns="http://www.w3.org/2000/svg">
<g clip-path="url(#clip0_86_28)">
<path d="M16 1C7.72478 1 1 7.72478 1 16C1 24.2752 7.72478 31 16 31C24.2752 31 31 24.2752 31 16C31 7.72478 24.2752 1 16 1ZM16 2.30435C23.57 2.30435 29.6957 8.43 29.6957 16C29.6957 16.0465 29.6923 16.0924 29.6918 16.1388C29.2747 16.1003 28.7927 16.0638 28.1799 16.042C27.3133 16.0113 26.221 16.0202 24.9827 16.0815C25.0286 15.7617 25.0608 15.4374 25.0617 15.1045C25.1248 13.8833 24.7147 12.7407 24.0477 11.7316C24.2089 11.1748 24.3979 10.4664 24.4451 9.66296C24.499 8.74713 24.42 7.73159 23.6847 7.04535L23.4962 6.86957H23.2389C21.489 6.86957 20.2913 7.60209 19.5589 8.18283C18.5014 7.77349 17.3123 7.52174 16 7.52174C14.6802 7.52174 13.4797 7.77701 12.3787 8.18538C11.6467 7.60436 10.4479 6.86957 8.69616 6.86957H8.44013L8.25161 7.04407C7.53541 7.70912 7.46942 8.6968 7.5141 9.60819C7.55349 10.4119 7.73156 11.1427 7.88986 11.7265C7.21162 12.7553 6.8046 13.9274 6.8046 15.0867C6.8046 15.4204 6.83563 15.7457 6.88103 16.0662C5.70336 16.0116 4.65354 16.0011 3.82014 16.0306C3.20729 16.0523 2.72529 16.0885 2.30817 16.1274C2.30778 16.0848 2.30435 16.0427 2.30435 16C2.30435 8.43 8.43 2.30435 16 2.30435ZM9.08466 8.25926C10.4005 8.38394 11.3904 8.9715 11.8488 9.37891L12.1545 9.64895L12.5315 9.49482C13.5629 9.07013 14.7133 8.82609 16 8.82609C17.2868 8.82609 18.4374 9.07135 19.3908 9.48845L19.7729 9.65659L20.085 9.37891C20.5435 8.97136 21.5351 8.38362 22.8516 8.25926C23.0267 8.54946 23.1788 8.96217 23.1421 9.58653C23.0981 10.3337 22.8982 11.1476 22.7472 11.6309L22.6491 11.9456L22.844 12.2118C23.4893 13.0918 23.8183 14.0441 23.7624 15.051L23.7611 15.0689V15.0867C23.7611 16.7142 23.1751 18.0167 21.9269 18.9819C20.6787 19.9471 18.7083 20.5652 15.935 20.5652C13.1618 20.5652 11.1901 19.9471 9.94192 18.9819C8.69373 18.0167 8.10895 16.7142 8.10895 15.0867C8.10895 14.1315 8.4539 13.0806 9.09103 12.2118L9.2821 11.9519L9.19039 11.6424C9.03926 11.1286 8.85402 10.2962 8.81717 9.5445C8.78653 8.91931 8.93449 8.52415 9.08466 8.25926ZM5.49006 16.6662C5.95095 16.6721 6.47921 16.6969 7.00841 16.7235C7.05897 16.9269 7.11662 17.1269 7.18674 17.3222C5.02976 17.3677 3.41613 17.5846 2.42154 17.7706C2.37948 17.4442 2.34599 17.1152 2.32728 16.7821C3.06231 16.7123 4.09848 16.6484 5.49006 16.6662ZM26.5099 16.6764C27.9006 16.6587 28.9363 16.7227 29.6715 16.7923C29.6528 17.1206 29.6198 17.445 29.5785 17.7667C28.5483 17.5777 26.8911 17.3609 24.6782 17.326C24.7469 17.1346 24.8041 16.938 24.854 16.7388C25.4378 16.7075 26.0073 16.6828 26.5099 16.6764ZM7.46442 17.9693C7.8536 18.7491 8.40968 19.4454 9.14453 20.0137C10.1492 20.7906 11.4554 21.3334 13.0499 21.6237C12.8413 21.8381 12.6516 22.0734 12.4831 22.3218L12.4436 22.2874C12.4472 22.2833 12.1194 22.4473 11.6297 22.4912C11.1399 22.535 10.5358 22.5217 10.0005 22.5217C9.2016 22.5217 8.8497 22.1443 8.28728 21.4569C7.97584 21.0371 7.59615 20.6972 7.2275 20.4391C6.85001 20.1749 6.528 19.9884 6.1295 19.922L6.076 19.913H6.02123C5.71688 19.913 5.42238 19.9351 5.14742 20.2493C5.00994 20.4064 4.91518 20.6973 4.97673 20.9435C5.03828 21.1897 5.19404 21.341 5.33339 21.4339C6.22473 22.0282 6.38226 23.2042 6.9409 24.2503C7.46259 25.2898 8.58848 25.7826 9.73939 25.7826H11.4348V28.9148C6.84857 27.296 3.39001 23.3074 2.52089 18.4151C3.5193 18.227 5.19122 18.0009 7.46442 17.9693ZM24.4018 17.9744C26.7254 17.9942 28.4442 18.22 29.4804 18.4113C28.6124 23.3053 25.1527 27.2956 20.5652 28.9148V25.5215C20.5652 24.4881 20.2259 23.3485 19.6354 22.3982C19.4561 22.1097 19.2452 21.8368 19.0099 21.5919C20.5199 21.2936 21.7602 20.7601 22.7255 20.0137C23.4588 19.4467 24.0136 18.7525 24.4018 17.9744ZM15.1517 21.9345H16.9783C17.5084 21.9345 18.0742 22.357 18.5272 23.086C18.9802 23.815 19.2609 24.794 19.2609 25.5215V29.3033C18.2157 29.5582 17.1242 29.6957 16 29.6957C14.8758 29.6957 13.7843 29.5582 12.7391 29.3033V25.5215C12.7391 24.8101 13.0442 23.8335 13.5276 23.1013C14.011 22.3692 14.6216 21.9345 15.1517 21.9345ZM7.723 22.7052C8.28763 23.2908 8.97121 23.8261 10.0005 23.8261C10.5087 23.8261 11.1429 23.8444 11.7456 23.7904C11.7477 23.7902 11.7498 23.7893 11.752 23.7891C11.6726 24.0174 11.6133 24.2471 11.5634 24.4783H9.73939C8.93504 24.4783 8.36681 24.1877 8.10513 23.6643L8.10003 23.6554L8.09621 23.6478C7.98899 23.4486 7.84825 23.0504 7.723 22.7052Z" fill="black"/>
</g>
<defs>
<clipPath id="clip0_86_28">
<rect width="30" height="30" fill="white"/>
</clipPath>
</defs>
</svg>
