<svg width="181" height="91" viewBox="0 0 181 91" fill="none" xmlns="http://www.w3.org/2000/svg">
<path fill-rule="evenodd" clip-rule="evenodd" d="M16.1677 11.4841L16.2205 22.0763L16.89 23.2896C17.6767 24.7154 19.2175 26.059 20.7972 26.697C21.8294 27.1138 21.8915 27.116 33.857 27.169L45.8798 27.2222V34.0365V40.851L32.8278 40.7844C21.2554 40.7256 19.622 40.6814 18.4196 40.3952C14.8818 39.5535 11.926 38.2482 9.34308 36.3877C7.55023 35.0961 4.74149 32.2593 3.70987 30.698C2.69153 29.1565 1.64083 26.8159 1.1384 24.9694C0.713813 23.4094 0.70558 23.1949 0.640461 12.1374L0.574219 0.891854H8.34476H16.1151L16.1677 11.4841ZM58.3479 10.6909C61.8599 19.6007 64.0472 25.1495 66.947 32.504C68.1299 35.504 68.4281 35.8821 69.5859 35.8494C70.8084 35.8149 70.4401 36.5511 75.4504 24.1295C77.3138 19.5099 79.5368 14.0085 80.3903 11.9041C81.2439 9.79961 82.5963 6.46086 83.3953 4.48482L84.8483 0.891854H93.8071C98.7343 0.891854 102.766 0.93628 102.766 0.990408C102.766 1.04454 101.888 3.16541 100.815 5.70325C99.026 9.93605 94.3962 20.9253 88.3938 35.1865L86.0181 40.8307L69.4766 40.7859L52.9353 40.7411L51.6382 37.6614C49.9593 33.6756 45.365 22.7436 44.1077 19.7433C41.3237 13.099 36.8167 2.38018 36.5142 1.68343L36.1687 0.888306L45.3457 0.936836L54.5225 0.985178L58.3479 10.6909ZM161.154 1.0884C170.35 2.22863 178.004 8.29448 180.454 16.3836C180.871 17.7622 180.879 17.9585 180.939 29.3089L181 40.8344H173.329H165.657L165.602 30.4245L165.546 20.0146L164.932 18.7712C163.664 16.2026 160.799 14.5171 157.701 14.5171C156.716 14.5171 154.937 14.9757 153.88 15.5024C152.748 16.0663 151.211 17.6017 150.661 18.7167L150.202 19.6499L150.151 30.2422L150.099 40.8344H142.345H134.592L134.537 30.3355L134.483 19.8366L133.968 18.7891C133.323 17.4816 131.731 15.9562 130.354 15.3274C126.433 13.5365 121.568 15.0489 119.667 18.6502L119.139 19.6499L119.086 30.2422L119.034 40.8344H111.274H103.514V20.8631V0.891854H131.541C150.042 0.891854 160.107 0.958676 161.154 1.0884Z" fill="black"/>
<path d="M34.0113 90.1119C33.1211 90.1119 32.4946 90.046 32.1319 89.9141C31.7692 89.7492 31.2746 89.3535 30.6481 88.7271L24.5152 82.5942C23.8887 81.9677 23.4931 81.4731 23.3282 81.1104C23.1963 80.7477 23.1304 80.1212 23.1304 79.231V57.4691C23.1304 56.5788 23.2293 56.0348 23.4271 55.8369C23.6579 55.6061 24.2185 55.4907 25.1087 55.4907H27.5817C28.4719 55.4907 29.016 55.6061 29.2138 55.8369C29.4446 56.0348 29.56 56.5788 29.56 57.4691V82.1985C29.56 83.0888 29.6589 83.6493 29.8568 83.8801C30.0876 84.0779 30.6481 84.1768 31.5384 84.1768H47.8598C48.75 84.1768 49.2941 84.2923 49.4919 84.5231C49.7227 84.7209 49.8381 85.2649 49.8381 86.1552V88.1336C49.8381 89.0238 49.7227 89.5843 49.4919 89.8152C49.2941 90.013 48.75 90.1119 47.8598 90.1119H34.0113Z" fill="black"/>
<path d="M56.7701 90.1119C55.8798 90.1119 55.3193 90.013 55.0885 89.8152C54.8907 89.5843 54.7917 89.0238 54.7917 88.1336V86.1552C54.7917 84.8033 54.9896 83.5174 55.3853 82.2974L61.1225 63.3052C61.3863 62.4479 61.65 61.9204 61.9138 61.7225C62.2106 61.5247 62.8041 61.4258 63.6943 61.4258H66.1673C67.0575 61.4258 67.6016 61.3269 67.7994 61.129C68.0302 60.8982 68.1456 60.3377 68.1456 59.4474V57.4691C68.1456 56.5788 68.2446 56.0348 68.4424 55.8369C68.6732 55.6061 69.2337 55.4907 70.124 55.4907H74.6742C77.312 55.4907 79.0101 56.7437 79.7685 59.2496L86.8411 82.2974C87.2367 83.5174 87.4346 84.8033 87.4346 86.1552V88.1336C87.4346 89.0238 87.3192 89.5843 87.0884 89.8152C86.8905 90.013 86.3465 90.1119 85.4562 90.1119H82.9833C82.093 90.1119 81.5325 90.013 81.3017 89.8152C81.1038 89.5843 81.0049 89.0238 81.0049 88.1336V86.1552C81.0049 84.8033 80.8071 83.5174 80.4114 82.2974L74.6742 63.3052C74.4104 62.4479 74.1302 61.9204 73.8334 61.7225C73.5696 61.5247 72.9926 61.4258 72.1023 61.4258H70.124C69.2337 61.4258 68.6402 61.5247 68.3435 61.7225C68.0797 61.9204 67.8159 62.4479 67.5521 63.3052L61.8149 82.2974C61.4192 83.5174 61.2214 84.8033 61.2214 86.1552V88.1336C61.2214 89.0238 61.106 89.5843 60.8752 89.8152C60.6773 90.013 60.1333 90.1119 59.243 90.1119H56.7701Z" fill="black"/>
<path d="M95.3364 90.1119C94.4461 90.1119 93.8856 90.013 93.6548 89.8152C93.457 89.5843 93.358 89.0238 93.358 88.1336V86.1552C93.358 85.2649 93.457 84.7209 93.6548 84.5231C93.8856 84.2923 94.4461 84.1768 95.3364 84.1768H113.142C114.032 84.1768 114.576 84.0779 114.774 83.8801C115.005 83.6493 115.12 83.0888 115.12 82.1985V77.4999C115.12 76.6096 115.005 76.0656 114.774 75.8678C114.576 75.637 114.032 75.5216 113.142 75.5216H95.831C94.9407 75.5216 94.3802 75.4226 94.1494 75.2248C93.9515 74.994 93.8526 74.4335 93.8526 73.5432V71.5648C93.8526 70.6746 93.9515 70.1305 94.1494 69.9327C94.3802 69.7019 94.9407 69.5865 95.831 69.5865H113.142C114.032 69.5865 114.576 69.4876 114.774 69.2897C115.005 69.0589 115.12 68.4984 115.12 67.6081V63.4041C115.12 62.5139 115.005 61.9698 114.774 61.772C114.576 61.5412 114.032 61.4258 113.142 61.4258H95.3364C94.4461 61.4258 93.8856 61.3269 93.6548 61.129C93.457 60.8982 93.358 60.3377 93.358 59.4474V57.4691C93.358 56.5788 93.457 56.0348 93.6548 55.8369C93.8856 55.6061 94.4461 55.4907 95.3364 55.4907H115.12C117.329 55.4907 118.945 56.0183 119.967 57.0734C121.022 58.0956 121.55 59.7112 121.55 61.9204V67.6081C121.55 68.4984 121.434 69.0589 121.203 69.2897C121.006 69.4876 120.461 69.5865 119.571 69.5865H117.098C116.208 69.5865 115.647 69.7019 115.417 69.9327C115.219 70.1305 115.12 70.6746 115.12 71.5648V73.5432C115.12 74.4335 115.219 74.994 115.417 75.2248C115.647 75.4226 116.208 75.5216 117.098 75.5216H119.571C120.461 75.5216 121.006 75.637 121.203 75.8678C121.434 76.0656 121.55 76.6096 121.55 77.4999V79.231C121.55 80.1212 121.467 80.7477 121.302 81.1104C121.17 81.4731 120.791 81.9677 120.165 82.5942L114.032 88.7271C113.405 89.3535 112.911 89.7492 112.548 89.9141C112.185 90.046 111.559 90.1119 110.669 90.1119H95.3364Z" fill="black"/>
<path d="M131.439 74.7797C130.549 74.7797 129.989 74.6808 129.758 74.4829C129.56 74.2521 129.461 73.6916 129.461 72.8013V65.3825C129.461 62.7447 130.78 61.4258 133.418 61.4258H133.912C134.803 61.4258 135.347 61.3269 135.544 61.129C135.775 60.8982 135.891 60.3377 135.891 59.4474C135.891 56.8096 137.21 55.4907 139.847 55.4907H157.158C158.048 55.4907 158.592 55.6061 158.79 55.8369C159.021 56.0348 159.136 56.5788 159.136 57.4691V59.4474C159.136 60.3377 159.021 60.8982 158.79 61.129C158.592 61.3269 158.048 61.4258 157.158 61.4258H137.869C136.979 61.4258 136.418 61.5412 136.187 61.772C135.99 61.9698 135.891 62.5139 135.891 63.4041V72.8013C135.891 73.6916 135.775 74.2521 135.544 74.4829C135.347 74.6808 134.803 74.7797 133.912 74.7797H131.439ZM127.977 88.1336V86.1552C127.977 85.2649 128.076 84.7209 128.274 84.5231C128.505 84.2923 129.065 84.1768 129.956 84.1768H149.245C150.135 84.1768 150.679 84.0779 150.877 83.8801C151.108 83.6493 151.223 83.0888 151.223 82.1985V72.8013C151.223 71.9111 151.322 71.367 151.52 71.1692C151.751 70.9384 152.311 70.823 153.201 70.823H155.674C156.564 70.823 157.109 70.9384 157.306 71.1692C157.537 71.367 157.653 71.9111 157.653 72.8013V80.2201C157.653 82.8579 156.334 84.1768 153.696 84.1768H153.201C152.311 84.1768 151.751 84.2923 151.52 84.5231C151.322 84.7209 151.223 85.2649 151.223 86.1552C151.223 88.793 149.904 90.1119 147.266 90.1119H129.956C129.065 90.1119 128.505 90.013 128.274 89.8152C128.076 89.5843 127.977 89.0238 127.977 88.1336Z" fill="black"/>
</svg>
