<svg width="228" height="105" viewBox="0 0 228 105" fill="none" xmlns="http://www.w3.org/2000/svg">
<path fill-rule="evenodd" clip-rule="evenodd" d="M20.4832 14.1329L20.5496 27.4681L21.3925 28.9954C22.3829 30.7905 24.3227 32.4821 26.3115 33.2852C27.6109 33.81 27.6891 33.8128 42.7532 33.8795L57.8894 33.9465V42.5254V51.1046L41.4575 51.0207C26.8884 50.9467 24.832 50.891 23.3182 50.5308C18.8642 49.471 15.143 47.8278 11.8912 45.4855C9.63413 43.8594 6.09804 40.2879 4.79927 38.3223C3.51723 36.3816 2.19444 33.4349 1.5619 31.1103C1.02737 29.1463 1.017 28.8763 0.93502 14.9553L0.851624 0.79768H10.6344H20.417L20.4832 14.1329ZM73.5862 13.1342C78.0076 24.3513 80.7613 31.337 84.4122 40.596C85.9013 44.3728 86.2768 44.8489 87.7343 44.8078C89.2734 44.7643 88.8098 45.6911 95.1175 30.0528C97.4634 24.2371 100.262 17.311 101.337 14.6616C102.411 12.0122 104.114 7.80882 105.12 5.32107L106.949 0.79768H118.228C124.431 0.79768 129.506 0.853611 129.506 0.921755C129.506 0.9899 128.401 3.65999 127.051 6.85503C124.798 12.1839 118.969 26.0189 111.413 43.9731L108.422 51.079L87.5968 51.0226L66.772 50.9662L65.1389 47.089C63.0253 42.071 57.2413 28.3081 55.6584 24.5308C52.1534 16.1659 46.4794 2.67142 46.0985 1.79424L45.6636 0.793213L57.217 0.854311L68.7702 0.915171L73.5862 13.1342ZM203.014 1.04512C214.592 2.48062 224.229 10.1173 227.312 20.3011C227.838 22.0367 227.847 22.2839 227.923 36.5736L228 51.0837H218.342H208.684L208.614 37.9781L208.544 24.8725L207.771 23.307C206.175 20.0732 202.568 17.9513 198.667 17.9513C197.427 17.9513 195.188 18.5287 193.857 19.1918C192.432 19.9017 190.496 21.8346 189.805 23.2384L189.226 24.4133L189.162 37.7485L189.097 51.0837H179.336H169.574L169.506 37.866L169.438 24.6483L168.788 23.3296C167.977 21.6835 165.973 19.763 164.239 18.9714C159.302 16.7167 153.178 18.6208 150.784 23.1547L150.12 24.4133L150.053 37.7485L149.987 51.0837H140.218H130.449V25.9407V0.79768H165.733C189.026 0.79768 201.696 0.881806 203.014 1.04512Z" fill="black"/>
<path d="M42.9475 104.506C41.8267 104.506 41.038 104.423 40.5814 104.257C40.1248 104.05 39.5021 103.552 38.7134 102.763L30.9923 95.0419C30.2036 94.2532 29.7055 93.6305 29.498 93.1739C29.3319 92.7173 29.2489 91.9285 29.2489 90.8077V63.4105C29.2489 62.2897 29.3734 61.6047 29.6225 61.3557C29.9131 61.0651 30.6188 60.9198 31.7395 60.9198H34.8529C35.9737 60.9198 36.6586 61.0651 36.9077 61.3557C37.1982 61.6047 37.3435 62.2897 37.3435 63.4105V94.5437C37.3435 95.6645 37.4681 96.3702 37.7171 96.6608C38.0077 96.9099 38.7134 97.0344 39.8342 97.0344H60.3822C61.503 97.0344 62.1879 97.1797 62.437 97.4703C62.7275 97.7193 62.8728 98.4043 62.8728 99.5251V102.016C62.8728 103.137 62.7275 103.842 62.437 104.133C62.1879 104.382 61.503 104.506 60.3822 104.506H42.9475Z" fill="black"/>
<path d="M71.5999 104.506C70.4791 104.506 69.7734 104.382 69.4828 104.133C69.2337 103.842 69.1092 103.137 69.1092 102.016V99.5251C69.1092 97.8231 69.3583 96.2042 69.8564 94.6683L77.0793 70.7579C77.4114 69.6786 77.7435 69.0145 78.0756 68.7654C78.4492 68.5163 79.1964 68.3918 80.3172 68.3918H83.4305C84.5513 68.3918 85.2362 68.2673 85.4853 68.0182C85.7759 67.7276 85.9212 67.0219 85.9212 65.9011V63.4105C85.9212 62.2897 86.0457 61.6047 86.2948 61.3557C86.5854 61.0651 87.291 60.9198 88.4118 60.9198H94.1404C97.4612 60.9198 99.5991 62.4972 100.554 65.6521L109.458 94.6683C109.956 96.2042 110.205 97.8231 110.205 99.5251V102.016C110.205 103.137 110.06 103.842 109.769 104.133C109.52 104.382 108.835 104.506 107.714 104.506H104.601C103.48 104.506 102.775 104.382 102.484 104.133C102.235 103.842 102.11 103.137 102.11 102.016V99.5251C102.11 97.8231 101.861 96.2042 101.363 94.6683L94.1404 70.7579C93.8083 69.6786 93.4554 69.0145 93.0818 68.7654C92.7497 68.5163 92.0233 68.3918 90.9025 68.3918H88.4118C87.291 68.3918 86.5438 68.5163 86.1702 68.7654C85.8382 69.0145 85.5061 69.6786 85.174 70.7579L77.9511 94.6683C77.4529 96.2042 77.2039 97.8231 77.2039 99.5251V102.016C77.2039 103.137 77.0586 103.842 76.768 104.133C76.5189 104.382 75.834 104.506 74.7132 104.506H71.5999Z" fill="black"/>
<path d="M120.153 104.506C119.032 104.506 118.327 104.382 118.036 104.133C117.787 103.842 117.663 103.137 117.663 102.016V99.5251C117.663 98.4043 117.787 97.7193 118.036 97.4703C118.327 97.1797 119.032 97.0344 120.153 97.0344H142.569C143.69 97.0344 144.375 96.9099 144.624 96.6608C144.915 96.3702 145.06 95.6645 145.06 94.5437V88.6284C145.06 87.5076 144.915 86.8227 144.624 86.5736C144.375 86.283 143.69 86.1378 142.569 86.1378H120.776C119.655 86.1378 118.949 86.0132 118.659 85.7642C118.41 85.4736 118.285 84.7679 118.285 83.6471V81.1564C118.285 80.0356 118.41 79.3507 118.659 79.1016C118.949 78.8111 119.655 78.6658 120.776 78.6658H142.569C143.69 78.6658 144.375 78.5412 144.624 78.2922C144.915 78.0016 145.06 77.2959 145.06 76.1751V70.8824C145.06 69.7617 144.915 69.0767 144.624 68.8277C144.375 68.5371 143.69 68.3918 142.569 68.3918H120.153C119.032 68.3918 118.327 68.2673 118.036 68.0182C117.787 67.7276 117.663 67.0219 117.663 65.9011V63.4105C117.663 62.2897 117.787 61.6047 118.036 61.3557C118.327 61.0651 119.032 60.9198 120.153 60.9198H145.06C147.841 60.9198 149.875 61.584 151.162 62.9123C152.49 64.1992 153.154 66.2332 153.154 69.0145V76.1751C153.154 77.2959 153.009 78.0016 152.719 78.2922C152.47 78.5412 151.785 78.6658 150.664 78.6658H147.55C146.43 78.6658 145.724 78.8111 145.433 79.1016C145.184 79.3507 145.06 80.0356 145.06 81.1564V83.6471C145.06 84.7679 145.184 85.4736 145.433 85.7642C145.724 86.0132 146.43 86.1378 147.55 86.1378H150.664C151.785 86.1378 152.47 86.283 152.719 86.5736C153.009 86.8227 153.154 87.5076 153.154 88.6284V90.8077C153.154 91.9285 153.051 92.7173 152.843 93.1739C152.677 93.6305 152.2 94.2532 151.411 95.0419L143.69 102.763C142.901 103.552 142.279 104.05 141.822 104.257C141.365 104.423 140.577 104.506 139.456 104.506H120.153Z" fill="black"/>
<path d="M165.605 85.2038C164.485 85.2038 163.779 85.0792 163.488 84.8302C163.239 84.5396 163.115 83.8339 163.115 82.7131V73.3731C163.115 70.0522 164.775 68.3918 168.096 68.3918H168.719C169.839 68.3918 170.524 68.2673 170.773 68.0182C171.064 67.7276 171.209 67.0219 171.209 65.9011C171.209 62.5802 172.87 60.9198 176.191 60.9198H197.984C199.105 60.9198 199.79 61.0651 200.039 61.3557C200.329 61.6047 200.475 62.2897 200.475 63.4105V65.9011C200.475 67.0219 200.329 67.7276 200.039 68.0182C199.79 68.2673 199.105 68.3918 197.984 68.3918H173.7C172.579 68.3918 171.874 68.5371 171.583 68.8277C171.334 69.0767 171.209 69.7617 171.209 70.8824V82.7131C171.209 83.8339 171.064 84.5396 170.773 84.8302C170.524 85.0792 169.839 85.2038 168.719 85.2038H165.605ZM161.247 102.016V99.5251C161.247 98.4043 161.371 97.7193 161.62 97.4703C161.911 97.1797 162.617 97.0344 163.737 97.0344H188.021C189.142 97.0344 189.827 96.9099 190.076 96.6608C190.367 96.3702 190.512 95.6645 190.512 94.5437V82.7131C190.512 81.5923 190.636 80.9074 190.886 80.6583C191.176 80.3677 191.882 80.2224 193.003 80.2224H196.116C197.237 80.2224 197.922 80.3677 198.171 80.6583C198.461 80.9074 198.607 81.5923 198.607 82.7131V92.0531C198.607 95.374 196.946 97.0344 193.625 97.0344H193.003C191.882 97.0344 191.176 97.1797 190.886 97.4703C190.636 97.7193 190.512 98.4043 190.512 99.5251C190.512 102.846 188.852 104.506 185.531 104.506H163.737C162.617 104.506 161.911 104.382 161.62 104.133C161.371 103.842 161.247 103.137 161.247 102.016Z" fill="black"/>
</svg>
