<svg version="1.1" id="Layer_1" xmlns="http://www.w3.org/2000/svg" xmlns:xlink="http://www.w3.org/1999/xlink" x="0px" y="0px"
	 width="100%" viewBox="60 430 620 160" enable-background="new 60 430 620 160" xml:space="preserve">
<path fill="#000000" opacity="1.000000" stroke="none" 
	d="
M468.678345,545.272705 
	C465.379639,545.296997 462.539398,545.167786 459.716827,545.335571 
	C455.332703,545.596252 453.774597,543.418884 453.796265,539.314575 
	C453.867554,525.819397 453.774231,512.323303 453.871948,498.828430 
	C453.914185,492.995392 455.107605,491.938843 461.118195,492.053284 
	C474.262177,492.303406 487.411285,493.071503 500.547455,492.163666 
	C507.408936,491.689453 507.817413,491.003387 507.859009,484.271149 
	C507.921234,474.204834 507.921265,474.224182 497.665314,474.244263 
	C485.336121,474.268402 473.005768,474.163513 460.678162,474.305603 
	C456.035187,474.359131 454.061523,472.409241 453.891693,467.801727 
	C453.435303,455.422485 453.866302,454.898987 466.394775,454.933319 
	C480.390076,454.971649 494.385559,454.956146 508.380676,455.025208 
	C519.811768,455.081604 526.303711,461.639954 526.331726,473.066772 
	C526.348450,479.897797 526.338135,486.728912 526.329346,493.559967 
	C526.317749,502.600647 522.904236,507.224854 514.164917,510.057526 
	C513.390442,510.308563 512.611328,510.545013 511.937469,510.755981 
	C510.844482,513.275696 512.603271,514.762878 513.597168,516.344421 
	C518.294556,523.819031 523.167908,531.183044 527.871277,538.653992 
	C530.984314,543.598816 530.104248,545.330933 524.369263,545.291077 
	C507.830780,545.176208 511.905579,547.296143 503.311066,534.287964 
	C499.087769,527.895935 495.016083,521.403503 490.899811,514.941162 
	C488.322021,510.894165 479.050751,508.437653 474.894623,510.708221 
	C472.837860,511.831970 473.217529,513.802124 473.206482,515.569519 
	C473.156494,523.566528 473.175751,531.563965 473.178040,539.561279 
	C473.178864,542.419434 472.823181,545.009094 468.678345,545.272705 
z"/>
<path fill="#000000" opacity="1.000000" stroke="none" 
	d="
M431.874786,545.318970 
	C417.562378,545.316223 403.735107,545.349304 389.908173,545.291931 
	C382.502350,545.261169 372.876709,536.041748 372.844879,528.640930 
	C372.764618,509.983673 372.794525,491.323914 373.027832,472.668274 
	C373.130432,464.462280 382.374084,455.240021 390.605713,455.120117 
	C404.929352,454.911530 419.258270,455.077118 433.584991,455.061798 
	C438.228027,455.056854 440.464478,456.871643 440.437805,461.961853 
	C440.373444,474.234497 440.568970,474.247070 428.067322,474.248444 
	C417.738739,474.249573 407.407898,474.339172 397.082642,474.145966 
	C392.697754,474.063934 390.785614,475.572662 391.731506,480.055756 
	C391.935455,481.022461 391.902466,482.044434 391.930023,483.042297 
	C392.195465,492.659058 392.193970,492.753448 401.583160,492.606781 
	C412.071106,492.442932 422.554901,492.025208 433.042664,491.834625 
	C439.190979,491.722900 440.280975,492.907776 440.347443,499.079987 
	C440.468811,510.353546 440.468811,510.381989 429.160156,510.380341 
	C418.332062,510.378754 407.501892,510.417664 396.676941,510.211639 
	C392.875305,510.139282 391.327911,511.362213 391.249298,515.330688 
	C391.024597,526.668213 390.889252,526.684814 402.177979,526.703918 
	C412.839813,526.721985 423.503510,526.805054 434.162720,526.632874 
	C438.696472,526.559631 440.630493,528.458801 440.356079,532.894470 
	C440.263672,534.387939 440.355957,535.892273 440.346497,537.391541 
	C440.299683,544.815308 439.913940,545.195984 431.874786,545.318970 
z"/>
<path fill="#000000" opacity="1.000000" stroke="none" 
	d="
M361.977020,484.000000 
	C362.029388,502.491364 362.103882,520.482727 362.109039,538.474060 
	C362.110840,544.745178 361.533722,545.312866 355.183655,545.299011 
	C340.913391,545.267883 342.612305,546.717468 342.655029,532.845154 
	C342.672485,527.180908 342.662994,521.516602 342.672913,515.852295 
	C342.679688,511.978119 341.019012,510.151062 336.884918,510.231049 
	C327.392365,510.414642 317.893616,510.252716 308.397614,510.291779 
	C303.392700,510.312347 301.980438,511.728516 302.623657,516.595093 
	C303.633728,524.237183 303.065918,531.902283 303.346863,539.551147 
	C303.490784,543.469238 302.117889,545.254761 297.916840,545.375183 
	C283.686859,545.783203 283.689209,545.900879 283.688873,531.527954 
	C283.688324,508.371002 283.677155,485.214050 283.697937,462.057098 
	C283.703461,455.913818 284.356140,455.300568 290.575562,455.096283 
	C302.707367,454.697815 302.720703,454.697632 302.888062,466.742249 
	C302.982971,473.571930 303.112915,480.403076 303.057800,487.232178 
	C303.026794,491.076416 304.836975,492.657379 308.523651,492.641479 
	C317.853027,492.601257 327.182678,492.597900 336.512115,492.626953 
	C340.895081,492.640594 342.809418,490.587982 342.726746,486.162750 
	C342.574310,478.002075 342.822296,469.832794 342.605042,461.675018 
	C342.478546,456.924927 344.559784,455.162323 349.120544,454.993652 
	C361.390198,454.539948 361.897644,454.923004 361.915955,467.006378 
	C361.924286,472.504272 361.952637,478.002136 361.977020,484.000000 
z"/>
<path fill="#000000" opacity="1.000000" stroke="none" 
	d="
M261.321167,508.771423 
	C258.296326,510.059174 255.513748,510.300995 252.646790,510.297272 
	C240.649399,510.281647 228.650894,510.454498 216.654938,510.337585 
	C212.071854,510.292969 210.002838,511.708008 210.241272,516.714111 
	C210.613434,524.527893 210.266022,532.373535 210.351379,540.204346 
	C210.390213,543.767334 208.901077,545.366150 205.286072,545.340515 
	C190.181335,545.233337 191.732635,546.838135 191.683044,532.708130 
	C191.645035,521.877014 191.662781,511.045654 191.685791,500.214447 
	C191.701782,492.693268 192.619736,491.867798 199.993225,491.889130 
	C214.823227,491.932007 229.655228,491.762054 244.482651,491.960205 
	C249.171036,492.022827 251.016678,490.545868 250.888580,485.665833 
	C250.552017,472.845032 252.239319,474.273773 239.285477,474.233063 
	C225.954971,474.191193 212.624084,474.277985 199.293427,474.262573 
	C193.243652,474.255585 191.882019,472.911835 191.690155,467.050537 
	C191.305099,455.287048 191.566879,454.984375 203.357834,454.967224 
	C219.854401,454.943207 236.352036,454.862030 252.847321,455.012756 
	C265.682190,455.130035 269.966370,459.556580 270.012634,472.202881 
	C270.038818,479.367981 270.041962,486.533478 270.001160,493.698486 
	C269.964325,500.171509 267.547058,505.353333 261.321167,508.771423 
z"/>
<path fill="#000000" opacity="1.000000" stroke="none" 
	d="
M571.709106,526.653809 
	C569.683044,529.941101 567.882202,532.940552 566.021606,535.902344 
	C560.174683,545.209717 554.435059,547.604187 543.644531,545.209595 
	C539.352173,544.257080 540.564941,541.527710 541.979004,539.128723 
	C547.307800,530.088013 551.971497,520.502258 558.387634,512.296082 
	C565.579102,503.098267 566.444641,495.510071 558.889404,486.064209 
	C553.009399,478.712860 548.848145,469.981415 543.973877,461.832977 
	C541.143494,457.101379 542.229370,455.690247 547.774963,454.936401 
	C557.736084,453.582336 564.765076,456.651031 568.953064,466.262115 
	C571.093811,471.174683 574.467163,475.550171 577.823914,481.054749 
	C582.003601,474.160370 585.601807,468.233185 589.192017,462.301147 
	C593.237000,455.617584 603.690186,452.390686 610.894958,455.566864 
	C614.099060,456.979401 613.258301,459.028961 611.929382,461.241180 
	C605.239624,472.377533 598.679138,483.594208 591.804688,494.615204 
	C589.832397,497.777100 589.970581,500.125275 591.906311,503.200043 
	C599.183472,514.759460 606.241272,526.457947 613.306335,538.149536 
	C616.648804,543.680969 615.776611,545.374146 609.474731,545.292786 
	C593.291870,545.084106 597.439941,547.608643 588.804321,533.886475 
	C585.386902,528.456055 582.014587,522.997375 578.396606,517.190247 
	C575.258179,520.284302 573.795593,523.470947 571.709106,526.653809 
z"/>
<path fill="#000000" opacity="1.000000" stroke="none" 
	d="
M132.860077,545.905518 
	C118.569626,545.734009 104.751999,545.610901 90.936485,545.367737 
	C83.858994,545.243286 74.684021,535.768921 74.673836,528.681641 
	C74.647980,510.695343 74.662743,492.709015 74.666420,474.722687 
	C74.668640,463.894836 83.204979,455.144501 94.146194,455.116394 
	C104.799217,455.089020 115.452759,455.434204 126.106827,455.542389 
	C129.265594,455.574463 132.426529,455.301727 135.587219,455.280090 
	C137.066757,455.269989 138.933792,454.996124 139.964294,455.747833 
	C145.505508,459.789948 141.650299,465.562225 142.199158,470.521973 
	C142.566422,473.840637 139.483963,474.227905 136.867020,474.233887 
	C124.543167,474.262177 112.219231,474.249725 99.895317,474.253052 
	C93.528099,474.254761 93.347443,474.414673 93.343719,480.608765 
	C93.335724,493.931946 93.474434,507.256989 93.279846,520.577271 
	C93.213348,525.129089 94.862732,526.796143 99.407440,526.727356 
	C111.895020,526.538086 124.389519,526.799622 136.876831,526.601868 
	C141.560333,526.527710 143.820343,528.141846 143.351288,532.960388 
	C143.271027,533.784851 143.345810,534.624573 143.353073,535.457275 
	C143.442108,545.658630 143.442307,545.658630 132.860077,545.905518 
z"/>
<path fill="#000000" opacity="1.000000" stroke="none" 
	d="
M162.450317,455.103455 
	C177.988068,454.923370 177.166580,453.689423 177.111725,469.336517 
	C177.032288,491.987091 177.188522,514.638550 177.265472,537.289551 
	C177.291779,545.035400 177.081635,545.338440 169.566925,545.319031 
	C157.018814,545.286743 157.688766,546.894531 157.694321,533.546448 
	C157.704300,509.561676 157.716324,485.576843 157.649551,461.592255 
	C157.640411,458.313812 157.869843,455.495941 162.450317,455.103455 
z"/>
</svg>