<svg width="30" height="30" viewBox="0 0 30 30" fill="none" xmlns="http://www.w3.org/2000/svg">
<path d="M15.0002 1.19995C22.622 1.19995 28.8002 7.37815 28.8002 15C28.8002 22.6218 22.622 28.8 15.0002 28.8C7.3784 28.8 1.2002 22.6218 1.2002 15C1.2002 7.37815 7.3784 1.19995 15.0002 1.19995ZM19.7606 20.625C20.0144 19.8462 21.2036 12.0846 21.3506 10.5552C21.395 10.092 21.2486 9.78415 20.9618 9.64675C20.615 9.47995 20.1014 9.56335 19.5056 9.77815C18.6884 10.0728 8.2412 14.5086 7.6376 14.7654C7.0652 15.0084 6.524 15.2736 6.524 15.6576C6.524 15.9276 6.6842 16.0794 7.1258 16.2372C7.5854 16.401 8.7428 16.752 9.4262 16.9404C10.0844 17.1222 10.8338 16.9644 11.2538 16.7034C11.699 16.4268 16.8368 12.9888 17.2058 12.6876C17.5742 12.3864 17.8682 12.7722 17.567 13.074C17.2658 13.3752 13.739 16.7982 13.274 17.2722C12.7094 17.8476 13.1102 18.444 13.4888 18.6828C13.9214 18.9552 17.0324 21.042 17.501 21.3768C17.9696 21.7116 18.4448 21.8634 18.8798 21.8634C19.3148 21.8634 19.544 21.2904 19.7606 20.625Z" fill="black"/>
</svg>
