<svg width="30" height="22" viewBox="0 0 30 22" fill="none" xmlns="http://www.w3.org/2000/svg">
<path d="M13.502 18.0198C13.6174 18.0199 13.7317 18.0428 13.8382 18.0871C13.9448 18.1315 14.0415 18.1963 14.123 18.278C14.2045 18.3597 14.2691 18.4567 14.3131 18.5634C14.3571 18.6701 14.3797 18.7844 14.3795 18.8998C14.3794 19.0152 14.3565 19.1294 14.3122 19.236C14.2678 19.3425 14.203 19.4393 14.1213 19.5208C14.0395 19.6023 13.9426 19.6668 13.8359 19.7109C13.7292 19.7549 13.6149 19.7774 13.4995 19.7773C13.2665 19.7769 13.0431 19.684 12.8785 19.519C12.714 19.354 12.6217 19.1303 12.622 18.8973C12.6224 18.6642 12.7153 18.4408 12.8803 18.2763C13.0453 18.1117 13.269 18.0194 13.502 18.0198ZM27.282 12.586C27.1666 12.5859 27.0524 12.5631 26.9458 12.5189C26.8392 12.4747 26.7424 12.4099 26.6608 12.3282C26.5793 12.2465 26.5146 12.1496 26.4705 12.043C26.4265 11.9363 26.4038 11.822 26.4039 11.7066C26.404 11.5912 26.4268 11.477 26.471 11.3704C26.5153 11.2638 26.5801 11.167 26.6617 11.0855C26.7434 11.0039 26.8403 10.9393 26.9469 10.8952C27.0536 10.8511 27.1679 10.8284 27.2833 10.8285C27.5163 10.8287 27.7398 10.9214 27.9045 11.0863C28.0691 11.2513 28.1616 11.4748 28.1614 11.7079C28.1612 11.941 28.0685 12.1644 27.9036 12.3291C27.7387 12.4938 27.5151 12.5862 27.282 12.586ZM27.282 8.99102C26.5615 8.99168 25.8707 9.2782 25.3612 9.78769C24.8517 10.2972 24.5652 10.988 24.5645 11.7085C24.5645 11.9998 24.6133 12.2898 24.7083 12.5723L15.732 17.351C15.4831 16.9896 15.1501 16.6942 14.7616 16.4901C14.3731 16.2861 13.9408 16.1796 13.502 16.1798C12.4658 16.1798 11.522 16.7735 11.0645 17.6998L3.00077 13.4473C2.14827 12.9998 1.51077 11.5973 1.57827 10.3198C1.61327 9.65352 1.84327 9.13602 2.19452 8.93602C2.41702 8.81102 2.68452 8.82102 2.96952 8.96977L3.02202 8.99852C5.15952 10.1235 12.152 13.8073 12.447 13.9435C12.9008 14.1548 13.1533 14.2398 13.9283 13.8723L28.3833 6.35477C28.5958 6.27477 28.8433 6.07102 28.8433 5.76227C28.8433 5.33477 28.4008 5.16602 28.3995 5.16602C27.577 4.77227 26.3133 4.18102 25.0808 3.60352C22.4458 2.36977 19.4595 0.972271 18.1483 0.284771C17.0158 -0.307729 16.1045 0.192271 15.942 0.292271L15.627 0.448521C9.72452 3.36727 1.82452 7.27977 1.37452 7.55352C0.570769 8.04352 0.0720193 9.01977 0.00701926 10.231C-0.0929807 12.1523 0.885769 14.156 2.28702 14.8898L10.8145 19.2873C10.9085 19.9332 11.2317 20.5238 11.7251 20.9512C12.2185 21.3785 12.8493 21.6141 13.502 21.6148C14.2149 21.6136 14.8989 21.3326 15.4068 20.8324C15.9148 20.3322 16.2062 19.6526 16.2183 18.9398L25.6108 13.8485C26.0858 14.221 26.677 14.4248 27.282 14.4248C28.0025 14.4241 28.6934 14.1376 29.2029 13.6281C29.7123 13.1186 29.9989 12.4278 29.9995 11.7073C29.9989 10.9867 29.7123 10.2959 29.2029 9.78644C28.6934 9.27695 28.0025 8.99043 27.282 8.98977" fill="black"/>
</svg>
